<svg width="229" height="170" viewBox="0 0 229 170" fill="none" xmlns="http://www.w3.org/2000/svg">
<g filter="url(#filter0_d)">
<rect x="4" width="221" height="162" fill="black"/>
</g>
<path d="M133 27.2499H95.0001V82.7499H133V27.2499Z" fill="#A1CF66"/>
<path d="M91.1999 34.65H76V75.35H91.1999V34.65Z" fill="#A1CF66"/>
<path d="M152 34.65H136.8V75.35H152V34.65Z" fill="#A1CF66"/>
<path d="M57.1606 138H53.4526L50.4286 129H41.7886L38.7286 138H35.7046L44.8126 111.792H48.0886L57.1606 138ZM49.6006 126.552L46.1446 116.184L42.6166 126.552H49.6006ZM63.6716 138H60.6836V125.04C60.6836 122.928 60.2996 121.308 59.5316 120.18L62.7716 119.784C63.2036 120.84 63.4796 121.956 63.5996 123.132C64.2476 122.124 65.0996 121.32 66.1556 120.72C67.2116 120.096 68.3156 119.784 69.4676 119.784L68.7476 122.952C66.8036 122.952 65.1116 124.008 63.6716 126.12V138ZM76.2224 138H73.2344V125.04C73.2344 122.928 72.8504 121.308 72.0824 120.18L75.3224 119.784C75.7544 120.84 76.0304 121.956 76.1504 123.132C76.7984 122.124 77.6504 121.32 78.7064 120.72C79.7624 120.096 80.8664 119.784 82.0184 119.784L81.2984 122.952C79.3544 122.952 77.6624 124.008 76.2224 126.12V138ZM99.6578 135.372L100.27 137.244C100.102 137.316 99.8258 137.436 99.4418 137.604C99.0818 137.748 98.7818 137.868 98.5418 137.964C98.3258 138.036 98.0498 138.108 97.7138 138.18C97.3778 138.276 97.0778 138.324 96.8138 138.324C96.1178 138.324 95.5418 138.096 95.0858 137.64C94.6538 137.184 94.3778 136.596 94.2578 135.876C92.6498 137.556 90.8498 138.396 88.8578 138.396C87.4178 138.396 86.2298 137.976 85.2938 137.136C84.3818 136.272 83.9258 135.12 83.9258 133.68C83.9258 129.624 87.3458 127.572 94.1858 127.524V125.616C94.1858 123.216 93.1898 122.016 91.1978 122.016C90.2618 122.016 89.3138 122.208 88.3538 122.592C87.3938 122.976 86.6258 123.492 86.0498 124.14L84.5738 122.016C86.5178 120.456 88.8098 119.676 91.4498 119.676C93.3218 119.676 94.7378 120.192 95.6978 121.224C96.6818 122.232 97.1738 123.684 97.1738 125.58V134.508C97.1738 134.988 97.2218 135.336 97.3178 135.552C97.4378 135.768 97.6538 135.876 97.9658 135.876C98.2538 135.876 98.8178 135.708 99.6578 135.372ZM94.1858 131.016V129.864C93.2978 129.864 92.5298 129.9 91.8818 129.972C91.2578 130.02 90.5138 130.152 89.6498 130.368C88.8098 130.584 88.1498 130.968 87.6698 131.52C87.2138 132.048 86.9858 132.732 86.9858 133.572C86.9858 134.34 87.2378 134.916 87.7418 135.3C88.2698 135.684 88.9658 135.876 89.8298 135.876C91.0538 135.876 92.0858 135.384 92.9258 134.4C93.7658 133.392 94.1858 132.264 94.1858 131.016ZM102.164 145.812H100.796V143.4H101.192C101.912 143.4 102.56 143.232 103.136 142.896C103.712 142.584 104.204 142.116 104.612 141.492C105.044 140.868 105.38 140.292 105.62 139.764C105.884 139.236 106.148 138.6 106.412 137.856L99.8597 120.108H103.1L107.852 133.716L112.604 120.108H115.412L109.076 138.072C107.228 143.232 104.924 145.812 102.164 145.812ZM140.161 138H125.797V114.168C125.797 114.144 125.749 113.952 125.653 113.592C125.581 113.232 125.497 112.86 125.401 112.476C125.329 112.068 125.293 111.84 125.293 111.792H129.145V135.516H140.161V138ZM147.853 114.096C147.853 114.72 147.637 115.248 147.205 115.68C146.797 116.088 146.281 116.292 145.657 116.292C145.057 116.292 144.541 116.076 144.109 115.644C143.701 115.212 143.497 114.696 143.497 114.096C143.497 113.496 143.701 112.98 144.109 112.548C144.541 112.116 145.057 111.9 145.657 111.9C146.257 111.9 146.773 112.116 147.205 112.548C147.637 112.98 147.853 113.496 147.853 114.096ZM147.205 138H144.217V122.232C144.217 122.208 144.181 122.04 144.109 121.728C144.037 121.392 143.965 121.056 143.893 120.72C143.821 120.36 143.785 120.156 143.785 120.108H147.205V138ZM152.065 136.956L153.325 134.76C154.717 135.72 155.989 136.2 157.141 136.2C158.125 136.2 158.977 136.008 159.697 135.624C160.417 135.24 160.777 134.592 160.777 133.68C160.777 132.96 160.489 132.336 159.913 131.808C159.337 131.256 158.629 130.788 157.789 130.404C156.973 130.02 156.157 129.624 155.341 129.216C154.525 128.784 153.829 128.208 153.253 127.488C152.677 126.768 152.389 125.904 152.389 124.896C152.389 123.216 153.001 121.932 154.225 121.044C155.449 120.132 156.937 119.676 158.689 119.676C160.513 119.676 162.109 120.096 163.477 120.936L162.433 123.24C161.305 122.376 160.165 121.944 159.013 121.944C158.077 121.944 157.249 122.136 156.529 122.52C155.809 122.904 155.449 123.528 155.449 124.392C155.449 125.112 155.737 125.748 156.313 126.3C156.889 126.828 157.585 127.284 158.401 127.668C159.241 128.028 160.069 128.424 160.885 128.856C161.725 129.264 162.433 129.84 163.009 130.584C163.585 131.328 163.873 132.216 163.873 133.248C163.873 135.024 163.261 136.344 162.037 137.208C160.837 138.048 159.301 138.468 157.429 138.468C155.821 138.468 154.033 137.964 152.065 136.956ZM176.245 135.732L176.749 137.748C175.333 138.18 174.145 138.396 173.185 138.396C171.721 138.396 170.665 138.012 170.017 137.244C169.393 136.452 169.081 135.288 169.081 133.752V122.376H166.417V120.576C168.505 120.528 169.897 118.668 170.593 114.996H172.861C172.333 117.156 172.069 118.86 172.069 120.108H176.749L176.101 122.376H172.069V133.824C172.069 134.592 172.201 135.168 172.465 135.552C172.753 135.912 173.257 136.092 173.977 136.092C174.529 136.092 175.285 135.972 176.245 135.732ZM179.311 136.956L180.571 134.76C181.963 135.72 183.235 136.2 184.387 136.2C185.371 136.2 186.223 136.008 186.943 135.624C187.663 135.24 188.023 134.592 188.023 133.68C188.023 132.96 187.735 132.336 187.159 131.808C186.583 131.256 185.875 130.788 185.035 130.404C184.219 130.02 183.403 129.624 182.587 129.216C181.771 128.784 181.075 128.208 180.499 127.488C179.923 126.768 179.635 125.904 179.635 124.896C179.635 123.216 180.247 121.932 181.471 121.044C182.695 120.132 184.183 119.676 185.935 119.676C187.759 119.676 189.355 120.096 190.723 120.936L189.679 123.24C188.551 122.376 187.411 121.944 186.259 121.944C185.323 121.944 184.495 122.136 183.775 122.52C183.055 122.904 182.695 123.528 182.695 124.392C182.695 125.112 182.983 125.748 183.559 126.3C184.135 126.828 184.831 127.284 185.647 127.668C186.487 128.028 187.315 128.424 188.131 128.856C188.971 129.264 189.679 129.84 190.255 130.584C190.831 131.328 191.119 132.216 191.119 133.248C191.119 135.024 190.507 136.344 189.283 137.208C188.083 138.048 186.547 138.468 184.675 138.468C183.067 138.468 181.279 137.964 179.311 136.956Z" fill="white"/>
<defs>
<filter id="filter0_d" x="0" y="0" width="229" height="170" filterUnits="userSpaceOnUse" color-interpolation-filters="sRGB">
<feFlood flood-opacity="0" result="BackgroundImageFix"/>
<feColorMatrix in="SourceAlpha" type="matrix" values="0 0 0 0 0 0 0 0 0 0 0 0 0 0 0 0 0 0 127 0"/>
<feOffset dy="4"/>
<feGaussianBlur stdDeviation="2"/>
<feColorMatrix type="matrix" values="0 0 0 0 0 0 0 0 0 0 0 0 0 0 0 0 0 0 0.25 0"/>
<feBlend mode="normal" in2="BackgroundImageFix" result="effect1_dropShadow"/>
<feBlend mode="normal" in="SourceGraphic" in2="effect1_dropShadow" result="shape"/>
</filter>
</defs>
</svg>
