<svg width="229" height="170" viewBox="0 0 229 170" fill="none" xmlns="http://www.w3.org/2000/svg">
<g filter="url(#filter0_d)">
<rect x="4" width="221" height="162" fill="black"/>
</g>
<path d="M88.697 138H85.349V125.616H72.605V138H69.257V114.168C69.257 114.144 69.209 113.952 69.113 113.592C69.041 113.232 68.957 112.86 68.861 112.476C68.789 112.068 68.753 111.84 68.753 111.792H72.605V123.168H85.349V111.792H88.697V138ZM106.44 134.292L107.772 136.452C106.116 137.796 104.1 138.468 101.724 138.468C99.1322 138.468 97.0922 137.604 95.6042 135.876C94.1402 134.124 93.4082 131.916 93.4082 129.252C93.4082 127.62 93.6722 126.096 94.2002 124.68C94.7522 123.264 95.6282 122.076 96.8282 121.116C98.0522 120.156 99.5042 119.676 101.184 119.676C103.272 119.676 104.952 120.3 106.224 121.548C107.496 122.772 108.132 124.416 108.132 126.48C108.132 128.016 107.52 128.784 106.296 128.784H96.5762V129.144C96.5762 130.872 97.0322 132.444 97.9442 133.86C98.8802 135.252 100.164 135.948 101.796 135.948C102.588 135.948 103.416 135.804 104.28 135.516C105.144 135.204 105.864 134.796 106.44 134.292ZM96.7922 126.552H104.316C104.58 126.552 104.748 126.504 104.82 126.408C104.892 126.288 104.928 126.084 104.928 125.796C104.928 124.716 104.616 123.804 103.992 123.06C103.368 122.316 102.528 121.944 101.472 121.944C100.32 121.944 99.3002 122.412 98.4122 123.348C97.5482 124.284 97.0082 125.352 96.7922 126.552ZM126.929 135.372L127.541 137.244C127.373 137.316 127.097 137.436 126.713 137.604C126.353 137.748 126.053 137.868 125.813 137.964C125.597 138.036 125.321 138.108 124.985 138.18C124.649 138.276 124.349 138.324 124.085 138.324C123.389 138.324 122.813 138.096 122.357 137.64C121.925 137.184 121.649 136.596 121.529 135.876C119.921 137.556 118.121 138.396 116.129 138.396C114.689 138.396 113.501 137.976 112.565 137.136C111.653 136.272 111.197 135.12 111.197 133.68C111.197 129.624 114.617 127.572 121.457 127.524V125.616C121.457 123.216 120.461 122.016 118.469 122.016C117.533 122.016 116.585 122.208 115.625 122.592C114.665 122.976 113.897 123.492 113.321 124.14L111.845 122.016C113.789 120.456 116.081 119.676 118.721 119.676C120.593 119.676 122.009 120.192 122.969 121.224C123.953 122.232 124.445 123.684 124.445 125.58V134.508C124.445 134.988 124.493 135.336 124.589 135.552C124.709 135.768 124.925 135.876 125.237 135.876C125.525 135.876 126.089 135.708 126.929 135.372ZM121.457 131.016V129.864C120.569 129.864 119.801 129.9 119.153 129.972C118.529 130.02 117.785 130.152 116.921 130.368C116.081 130.584 115.421 130.968 114.941 131.52C114.485 132.048 114.257 132.732 114.257 133.572C114.257 134.34 114.509 134.916 115.013 135.3C115.541 135.684 116.237 135.876 117.101 135.876C118.325 135.876 119.357 135.384 120.197 134.4C121.037 133.392 121.457 132.264 121.457 131.016ZM133.774 145.776H130.318V125.328C130.318 123.12 129.946 121.428 129.202 120.252L132.37 119.856C132.706 120.6 132.934 121.416 133.054 122.304C134.422 120.576 136.174 119.712 138.31 119.712C140.686 119.712 142.522 120.636 143.818 122.484C145.114 124.332 145.762 126.492 145.762 128.964C145.762 131.604 145.066 133.848 143.674 135.696C142.282 137.544 140.302 138.468 137.734 138.468C135.886 138.468 134.398 137.94 133.27 136.884V143.652L133.774 145.776ZM133.27 124.716V130.764C133.27 132.3 133.63 133.56 134.35 134.544C135.07 135.528 136.174 136.02 137.662 136.02C138.574 136.02 139.354 135.816 140.002 135.408C140.674 135 141.19 134.46 141.55 133.788C141.91 133.092 142.174 132.36 142.342 131.592C142.51 130.824 142.594 130.02 142.594 129.18C142.594 127.308 142.174 125.7 141.334 124.356C140.494 123.012 139.186 122.34 137.41 122.34C135.994 122.34 134.614 123.132 133.27 124.716ZM149.242 136.956L150.502 134.76C151.894 135.72 153.166 136.2 154.318 136.2C155.302 136.2 156.154 136.008 156.874 135.624C157.594 135.24 157.954 134.592 157.954 133.68C157.954 132.96 157.666 132.336 157.09 131.808C156.514 131.256 155.806 130.788 154.966 130.404C154.15 130.02 153.334 129.624 152.518 129.216C151.702 128.784 151.006 128.208 150.43 127.488C149.854 126.768 149.566 125.904 149.566 124.896C149.566 123.216 150.178 121.932 151.402 121.044C152.626 120.132 154.114 119.676 155.866 119.676C157.69 119.676 159.286 120.096 160.654 120.936L159.61 123.24C158.482 122.376 157.342 121.944 156.19 121.944C155.254 121.944 154.426 122.136 153.706 122.52C152.986 122.904 152.626 123.528 152.626 124.392C152.626 125.112 152.914 125.748 153.49 126.3C154.066 126.828 154.762 127.284 155.578 127.668C156.418 128.028 157.246 128.424 158.062 128.856C158.902 129.264 159.61 129.84 160.186 130.584C160.762 131.328 161.05 132.216 161.05 133.248C161.05 135.024 160.438 136.344 159.214 137.208C158.014 138.048 156.478 138.468 154.606 138.468C152.998 138.468 151.21 137.964 149.242 136.956Z" fill="white"/>
<path d="M155.2 78H150.6L136.1 66H137.7C140.4 66 142.5 64.24 142.5 62.16V53.84C142.5 51.68 140.3 50 137.7 50H133.1L118.6 38H120.2C122.9 38 125 36.24 125 34.16V25.84C125 23.76 122.8 22 120.2 22H109.8C107.2 22 105 23.76 105 25.84V34.16C105 36.32 107.2 38 109.8 38H111.4L96.9 50H92.3C89.6 50 87.5 51.76 87.5 53.84V62.16C87.5 64.32 89.7 66 92.3 66H93.9L79.4 78H74.8C72.2 78 70 79.76 70 81.84V90.16C70 92.24 72.2 94 74.8 94H85.2C87.9 94 90 92.24 90 90.16V81.84C90 79.68 87.8 78 85.2 78H83.6L97.5 66.56L111.4 78H109.8C107.1 78 105 79.76 105 81.84V90.16C105 92.32 107.2 94 109.8 94H120.2C122.9 94 125 92.24 125 90.16V81.84C125 79.68 122.8 78 120.2 78H115.6L101.1 66H102.7C105.4 66 107.5 64.24 107.5 62.16V53.84C107.5 51.68 105.3 50 102.7 50H101.1L115 38.48L128.9 50H127.3C124.6 50 122.5 51.76 122.5 53.84V62.16C122.5 64.32 124.7 66 127.3 66H131.9L146.5 78H144.9C142.2 78 140.1 79.76 140.1 81.84V90.16C140.1 92.32 142.3 94 144.9 94H155.3C158 94 160.1 92.24 160.1 90.16V81.84C160 79.76 157.8 78 155.2 78ZM87 81.84V90.16C87 90.96 86.2 91.6 85.2 91.6H74.8C73.8 91.6 73 90.96 73 90.16V81.84C73 81.04 73.8 80.4 74.8 80.4H85.2C86.2 80.4 87 81.04 87 81.84ZM122 81.84V90.16C122 90.96 121.2 91.6 120.2 91.6H109.8C108.8 91.6 108 90.96 108 90.16V81.84C108 81.04 108.8 80.4 109.8 80.4H120.2C121.2 80.4 122 81.04 122 81.84ZM104.5 53.84V62.16C104.5 62.96 103.7 63.6 102.7 63.6H92.3C91.3 63.6 90.5 62.96 90.5 62.16V53.84C90.5 53.04 91.3 52.4 92.3 52.4H102.7C103.7 52.4 104.5 53.04 104.5 53.84ZM108 34.16V25.84C108 25.04 108.8 24.4 109.8 24.4H120.2C121.2 24.4 122 25.04 122 25.84V34.16C122 34.96 121.2 35.6 120.2 35.6H109.8C108.8 35.6 108 34.96 108 34.16ZM125.5 62.16V53.84C125.5 53.04 126.3 52.4 127.3 52.4H137.7C138.7 52.4 139.5 53.04 139.5 53.84V62.16C139.5 62.96 138.7 63.6 137.7 63.6H127.3C126.3 63.6 125.5 62.96 125.5 62.16ZM157 90.16C157 90.96 156.2 91.6 155.2 91.6H144.8C143.8 91.6 143 90.96 143 90.16V81.84C143 81.04 143.8 80.4 144.8 80.4H155.2C156.2 80.4 157 81.04 157 81.84V90.16Z" fill="#A1CF66"/>
<defs>
<filter id="filter0_d" x="0" y="0" width="229" height="170" filterUnits="userSpaceOnUse" color-interpolation-filters="sRGB">
<feFlood flood-opacity="0" result="BackgroundImageFix"/>
<feColorMatrix in="SourceAlpha" type="matrix" values="0 0 0 0 0 0 0 0 0 0 0 0 0 0 0 0 0 0 127 0"/>
<feOffset dy="4"/>
<feGaussianBlur stdDeviation="2"/>
<feColorMatrix type="matrix" values="0 0 0 0 0 0 0 0 0 0 0 0 0 0 0 0 0 0 0.25 0"/>
<feBlend mode="normal" in2="BackgroundImageFix" result="effect1_dropShadow"/>
<feBlend mode="normal" in="SourceGraphic" in2="effect1_dropShadow" result="shape"/>
</filter>
</defs>
</svg>
