<svg width="229" height="172" viewBox="0 0 229 172" fill="none" xmlns="http://www.w3.org/2000/svg">
<g filter="url(#filter0_d)">
<rect x="4" y="2" width="221" height="162" fill="black"/>
</g>
<path d="M41.7413 140H27.3773V116.168C27.3773 116.144 27.3293 115.952 27.2333 115.592C27.1613 115.232 27.0773 114.86 26.9813 114.476C26.9093 114.068 26.8733 113.84 26.8733 113.792H30.7253V137.516H41.7413V140ZM49.4334 116.096C49.4334 116.72 49.2174 117.248 48.7854 117.68C48.3774 118.088 47.8614 118.292 47.2374 118.292C46.6374 118.292 46.1214 118.076 45.6894 117.644C45.2814 117.212 45.0774 116.696 45.0774 116.096C45.0774 115.496 45.2814 114.98 45.6894 114.548C46.1214 114.116 46.6374 113.9 47.2374 113.9C47.8374 113.9 48.3534 114.116 48.7854 114.548C49.2174 114.98 49.4334 115.496 49.4334 116.096ZM48.7854 140H45.7974V124.232C45.7974 124.208 45.7614 124.04 45.6894 123.728C45.6174 123.392 45.5454 123.056 45.4734 122.72C45.4014 122.36 45.3654 122.156 45.3654 122.108H48.7854V140ZM68.5126 140H65.5606V129.02C65.5606 128.468 65.5486 128.012 65.5246 127.652C65.5006 127.292 65.4286 126.884 65.3086 126.428C65.2126 125.972 65.0566 125.612 64.8406 125.348C64.6486 125.06 64.3486 124.82 63.9406 124.628C63.5566 124.436 63.0886 124.34 62.5366 124.34C60.9526 124.34 59.3206 125.132 57.6406 126.716V140H54.6886V127.328C54.6886 125.024 54.2926 123.332 53.5006 122.252L56.7766 121.82C57.1366 122.732 57.3646 123.584 57.4606 124.376C59.2606 122.576 61.1206 121.676 63.0406 121.676C64.9366 121.676 66.3166 122.252 67.1806 123.404C68.0686 124.532 68.5126 126.08 68.5126 128.048V140ZM88.2721 140H84.7081L77.4001 130.28V140H74.4121V114.692C74.4121 114.668 74.3761 114.5 74.3041 114.188C74.2321 113.852 74.1481 113.516 74.0521 113.18C73.9801 112.82 73.9441 112.616 73.9441 112.568H77.4001V129.488L84.0961 122.108H87.3001L80.4241 129.632L88.2721 140ZM101.932 136.292L103.264 138.452C101.608 139.796 99.5924 140.468 97.2164 140.468C94.6244 140.468 92.5844 139.604 91.0964 137.876C89.6324 136.124 88.9004 133.916 88.9004 131.252C88.9004 129.62 89.1644 128.096 89.6924 126.68C90.2444 125.264 91.1204 124.076 92.3204 123.116C93.5444 122.156 94.9964 121.676 96.6764 121.676C98.7644 121.676 100.444 122.3 101.716 123.548C102.988 124.772 103.624 126.416 103.624 128.48C103.624 130.016 103.012 130.784 101.788 130.784H92.0684V131.144C92.0684 132.872 92.5244 134.444 93.4364 135.86C94.3724 137.252 95.6564 137.948 97.2884 137.948C98.0804 137.948 98.9084 137.804 99.7724 137.516C100.636 137.204 101.356 136.796 101.932 136.292ZM92.2844 128.552H99.8084C100.072 128.552 100.24 128.504 100.312 128.408C100.384 128.288 100.42 128.084 100.42 127.796C100.42 126.716 100.108 125.804 99.4844 125.06C98.8604 124.316 98.0204 123.944 96.9644 123.944C95.8124 123.944 94.7924 124.412 93.9044 125.348C93.0404 126.284 92.5004 127.352 92.2844 128.552ZM123.285 139.928L120.117 140.324C119.781 139.58 119.553 138.764 119.433 137.876C118.089 139.604 116.325 140.468 114.141 140.468C111.789 140.468 109.965 139.544 108.669 137.696C107.373 135.848 106.725 133.688 106.725 131.216C106.725 128.576 107.409 126.332 108.777 124.484C110.169 122.636 112.149 121.712 114.717 121.712C116.565 121.712 118.065 122.24 119.217 123.296V114.692L118.713 112.568H122.169V134.852C122.169 136.988 122.541 138.68 123.285 139.928ZM119.217 135.464V129.416C119.217 127.88 118.845 126.62 118.101 125.636C117.381 124.652 116.277 124.16 114.789 124.16C113.877 124.16 113.085 124.364 112.413 124.772C111.765 125.18 111.261 125.732 110.901 126.428C110.565 127.1 110.313 127.82 110.145 128.588C109.977 129.332 109.893 130.136 109.893 131C109.893 132.872 110.313 134.48 111.153 135.824C111.993 137.168 113.289 137.84 115.041 137.84C116.433 137.84 117.825 137.048 119.217 135.464ZM150.937 140H136.573V116.168C136.573 116.144 136.525 115.952 136.429 115.592C136.357 115.232 136.273 114.86 136.177 114.476C136.105 114.068 136.069 113.84 136.069 113.792H139.921V137.516H150.937V140ZM158.629 116.096C158.629 116.72 158.413 117.248 157.981 117.68C157.573 118.088 157.057 118.292 156.433 118.292C155.833 118.292 155.317 118.076 154.885 117.644C154.477 117.212 154.273 116.696 154.273 116.096C154.273 115.496 154.477 114.98 154.885 114.548C155.317 114.116 155.833 113.9 156.433 113.9C157.033 113.9 157.549 114.116 157.981 114.548C158.413 114.98 158.629 115.496 158.629 116.096ZM157.981 140H154.993V124.232C154.993 124.208 154.957 124.04 154.885 123.728C154.813 123.392 154.741 123.056 154.669 122.72C154.597 122.36 154.561 122.156 154.561 122.108H157.981V140ZM162.84 138.956L164.1 136.76C165.492 137.72 166.764 138.2 167.916 138.2C168.9 138.2 169.752 138.008 170.472 137.624C171.192 137.24 171.552 136.592 171.552 135.68C171.552 134.96 171.264 134.336 170.688 133.808C170.112 133.256 169.404 132.788 168.564 132.404C167.748 132.02 166.932 131.624 166.116 131.216C165.3 130.784 164.604 130.208 164.028 129.488C163.452 128.768 163.164 127.904 163.164 126.896C163.164 125.216 163.776 123.932 165 123.044C166.224 122.132 167.712 121.676 169.464 121.676C171.288 121.676 172.884 122.096 174.252 122.936L173.208 125.24C172.08 124.376 170.94 123.944 169.788 123.944C168.852 123.944 168.024 124.136 167.304 124.52C166.584 124.904 166.224 125.528 166.224 126.392C166.224 127.112 166.512 127.748 167.088 128.3C167.664 128.828 168.36 129.284 169.176 129.668C170.016 130.028 170.844 130.424 171.66 130.856C172.5 131.264 173.208 131.84 173.784 132.584C174.36 133.328 174.648 134.216 174.648 135.248C174.648 137.024 174.036 138.344 172.812 139.208C171.612 140.048 170.076 140.468 168.204 140.468C166.596 140.468 164.808 139.964 162.84 138.956ZM187.021 137.732L187.525 139.748C186.109 140.18 184.921 140.396 183.961 140.396C182.497 140.396 181.441 140.012 180.793 139.244C180.169 138.452 179.857 137.288 179.857 135.752V124.376H177.193V122.576C179.281 122.528 180.673 120.668 181.369 116.996H183.637C183.109 119.156 182.845 120.86 182.845 122.108H187.525L186.877 124.376H182.845V135.824C182.845 136.592 182.977 137.168 183.241 137.552C183.529 137.912 184.033 138.092 184.753 138.092C185.305 138.092 186.061 137.972 187.021 137.732ZM190.086 138.956L191.346 136.76C192.738 137.72 194.01 138.2 195.162 138.2C196.146 138.2 196.998 138.008 197.718 137.624C198.438 137.24 198.798 136.592 198.798 135.68C198.798 134.96 198.51 134.336 197.934 133.808C197.358 133.256 196.65 132.788 195.81 132.404C194.994 132.02 194.178 131.624 193.362 131.216C192.546 130.784 191.85 130.208 191.274 129.488C190.698 128.768 190.41 127.904 190.41 126.896C190.41 125.216 191.022 123.932 192.246 123.044C193.47 122.132 194.958 121.676 196.71 121.676C198.534 121.676 200.13 122.096 201.498 122.936L200.454 125.24C199.326 124.376 198.186 123.944 197.034 123.944C196.098 123.944 195.27 124.136 194.55 124.52C193.83 124.904 193.47 125.528 193.47 126.392C193.47 127.112 193.758 127.748 194.334 128.3C194.91 128.828 195.606 129.284 196.422 129.668C197.262 130.028 198.09 130.424 198.906 130.856C199.746 131.264 200.454 131.84 201.03 132.584C201.606 133.328 201.894 134.216 201.894 135.248C201.894 137.024 201.282 138.344 200.058 139.208C198.858 140.048 197.322 140.468 195.45 140.468C193.842 140.468 192.054 139.964 190.086 138.956Z" fill="white"/>
<path d="M179.9 48H163.1C159.5 48 156.5 50.4 156.5 53.28V58.8L155.3 58.2L147.65 54V58.2H134V53.28C134 50.4 131 48 127.4 48H110.6C107 48 104 50.4 104 53.28V58.68L103.1 58.2L95.45 54V58.2H81.5V53.28C81.5 50.4 78.5 48 74.9 48H58.1C54.5 48 51.5 50.4 51.5 53.28V66.72C51.5 69.6 54.5 72 58.1 72H74.9C78.5 72 81.5 69.6 81.5 66.72V61.8H95.45V66L103.1 61.8L104 61.32V66.72C104 69.6 107 72 110.6 72H127.4C131 72 134 69.6 134 66.72V61.8H147.65V66L155.3 61.8L156.5 61.2V66.72C156.5 69.6 159.5 72 163.1 72H179.9C183.5 72 186.5 69.6 186.5 66.72V53.28C186.5 50.4 183.5 48 179.9 48ZM77 66.72C77 67.68 76.1 68.4 74.9 68.4H58.1C56.9 68.4 56 67.68 56 66.72V53.28C56 52.32 56.9 51.6 58.1 51.6H74.9C76.1 51.6 77 52.32 77 53.28V66.72ZM129.5 66.72C129.5 67.68 128.6 68.4 127.4 68.4H110.6C109.4 68.4 108.5 67.68 108.5 66.72V53.28C108.5 52.32 109.4 51.6 110.6 51.6H127.4C128.6 51.6 129.5 52.32 129.5 53.28V66.72V66.72ZM182 66.72C182 67.68 181.1 68.4 179.9 68.4H163.1C161.9 68.4 161 67.68 161 66.72V53.28C161 52.32 161.9 51.6 163.1 51.6H179.9C181.1 51.6 182 52.32 182 53.28V66.72V66.72Z" fill="#A1CF66"/>
<defs>
<filter id="filter0_d" x="0" y="2" width="229" height="170" filterUnits="userSpaceOnUse" color-interpolation-filters="sRGB">
<feFlood flood-opacity="0" result="BackgroundImageFix"/>
<feColorMatrix in="SourceAlpha" type="matrix" values="0 0 0 0 0 0 0 0 0 0 0 0 0 0 0 0 0 0 127 0"/>
<feOffset dy="4"/>
<feGaussianBlur stdDeviation="2"/>
<feColorMatrix type="matrix" values="0 0 0 0 0 0 0 0 0 0 0 0 0 0 0 0 0 0 0.25 0"/>
<feBlend mode="normal" in2="BackgroundImageFix" result="effect1_dropShadow"/>
<feBlend mode="normal" in="SourceGraphic" in2="effect1_dropShadow" result="shape"/>
</filter>
</defs>
</svg>
