<svg width="229" height="170" viewBox="0 0 229 170" fill="none" xmlns="http://www.w3.org/2000/svg">
<g filter="url(#filter0_d)">
<rect x="4" width="221" height="162" fill="black"/>
</g>
<path d="M51.8884 138H48.5404V125.616H35.7964V138H32.4484V114.168C32.4484 114.144 32.4004 113.952 32.3044 113.592C32.2324 113.232 32.1484 112.86 32.0524 112.476C31.9804 112.068 31.9444 111.84 31.9444 111.792H35.7964V123.168H48.5404V111.792H51.8884V138ZM72.3316 135.372L72.9436 137.244C72.7756 137.316 72.4996 137.436 72.1156 137.604C71.7556 137.748 71.4556 137.868 71.2156 137.964C70.9996 138.036 70.7236 138.108 70.3876 138.18C70.0516 138.276 69.7516 138.324 69.4876 138.324C68.7916 138.324 68.2156 138.096 67.7596 137.64C67.3276 137.184 67.0516 136.596 66.9316 135.876C65.3236 137.556 63.5236 138.396 61.5316 138.396C60.0916 138.396 58.9036 137.976 57.9676 137.136C57.0556 136.272 56.5996 135.12 56.5996 133.68C56.5996 129.624 60.0196 127.572 66.8596 127.524V125.616C66.8596 123.216 65.8636 122.016 63.8716 122.016C62.9356 122.016 61.9876 122.208 61.0276 122.592C60.0676 122.976 59.2996 123.492 58.7236 124.14L57.2476 122.016C59.1916 120.456 61.4836 119.676 64.1236 119.676C65.9956 119.676 67.4116 120.192 68.3716 121.224C69.3556 122.232 69.8476 123.684 69.8476 125.58V134.508C69.8476 134.988 69.8956 135.336 69.9916 135.552C70.1116 135.768 70.3276 135.876 70.6396 135.876C70.9276 135.876 71.4916 135.708 72.3316 135.372ZM66.8596 131.016V129.864C65.9716 129.864 65.2036 129.9 64.5556 129.972C63.9316 130.02 63.1876 130.152 62.3236 130.368C61.4836 130.584 60.8236 130.968 60.3436 131.52C59.8876 132.048 59.6596 132.732 59.6596 133.572C59.6596 134.34 59.9116 134.916 60.4156 135.3C60.9436 135.684 61.6396 135.876 62.5036 135.876C63.7276 135.876 64.7596 135.384 65.5996 134.4C66.4396 133.392 66.8596 132.264 66.8596 131.016ZM74.6407 136.956L75.9007 134.76C77.2927 135.72 78.5647 136.2 79.7167 136.2C80.7007 136.2 81.5527 136.008 82.2727 135.624C82.9927 135.24 83.3527 134.592 83.3527 133.68C83.3527 132.96 83.0647 132.336 82.4887 131.808C81.9127 131.256 81.2047 130.788 80.3647 130.404C79.5487 130.02 78.7327 129.624 77.9167 129.216C77.1007 128.784 76.4047 128.208 75.8287 127.488C75.2527 126.768 74.9647 125.904 74.9647 124.896C74.9647 123.216 75.5767 121.932 76.8007 121.044C78.0247 120.132 79.5127 119.676 81.2647 119.676C83.0887 119.676 84.6847 120.096 86.0527 120.936L85.0087 123.24C83.8807 122.376 82.7407 121.944 81.5887 121.944C80.6527 121.944 79.8247 122.136 79.1047 122.52C78.3847 122.904 78.0247 123.528 78.0247 124.392C78.0247 125.112 78.3127 125.748 78.8887 126.3C79.4647 126.828 80.1607 127.284 80.9767 127.668C81.8167 128.028 82.6447 128.424 83.4607 128.856C84.3007 129.264 85.0087 129.84 85.5847 130.584C86.1607 131.328 86.4487 132.216 86.4487 133.248C86.4487 135.024 85.8367 136.344 84.6127 137.208C83.4127 138.048 81.8767 138.468 80.0047 138.468C78.3967 138.468 76.6087 137.964 74.6407 136.956ZM105.049 138H102.097V126.984C102.097 126.288 102.073 125.724 102.025 125.292C101.977 124.86 101.857 124.392 101.665 123.888C101.497 123.36 101.197 122.964 100.765 122.7C100.333 122.436 99.7814 122.304 99.1094 122.304C97.7174 122.304 96.0734 123.096 94.1774 124.68V138H91.2254V112.692C91.2254 112.668 91.1894 112.5 91.1174 112.188C91.0454 111.852 90.9614 111.516 90.8654 111.18C90.7934 110.82 90.7574 110.616 90.7574 110.568H94.1774V122.232C96.0014 120.504 97.8134 119.64 99.6134 119.64C103.237 119.64 105.049 121.764 105.049 126.012V138ZM143.294 138H139.982V116.58L132.098 138.036H130.082L122.198 116.58V138H119.462V114.168L118.922 111.792H123.782L131.414 132.204L138.938 111.792H143.294V138ZM163.738 135.372L164.35 137.244C164.182 137.316 163.906 137.436 163.522 137.604C163.162 137.748 162.862 137.868 162.622 137.964C162.406 138.036 162.13 138.108 161.794 138.18C161.458 138.276 161.158 138.324 160.894 138.324C160.198 138.324 159.622 138.096 159.166 137.64C158.734 137.184 158.458 136.596 158.338 135.876C156.73 137.556 154.93 138.396 152.938 138.396C151.498 138.396 150.31 137.976 149.374 137.136C148.462 136.272 148.006 135.12 148.006 133.68C148.006 129.624 151.426 127.572 158.266 127.524V125.616C158.266 123.216 157.27 122.016 155.278 122.016C154.342 122.016 153.394 122.208 152.434 122.592C151.474 122.976 150.706 123.492 150.13 124.14L148.654 122.016C150.598 120.456 152.89 119.676 155.53 119.676C157.402 119.676 158.818 120.192 159.778 121.224C160.762 122.232 161.254 123.684 161.254 125.58V134.508C161.254 134.988 161.302 135.336 161.398 135.552C161.518 135.768 161.734 135.876 162.046 135.876C162.334 135.876 162.898 135.708 163.738 135.372ZM158.266 131.016V129.864C157.378 129.864 156.61 129.9 155.962 129.972C155.338 130.02 154.594 130.152 153.73 130.368C152.89 130.584 152.23 130.968 151.75 131.52C151.294 132.048 151.066 132.732 151.066 133.572C151.066 134.34 151.318 134.916 151.822 135.3C152.35 135.684 153.046 135.876 153.91 135.876C155.134 135.876 156.166 135.384 157.006 134.4C157.846 133.392 158.266 132.264 158.266 131.016ZM170.583 145.776H167.127V125.328C167.127 123.12 166.755 121.428 166.011 120.252L169.179 119.856C169.515 120.6 169.743 121.416 169.863 122.304C171.231 120.576 172.983 119.712 175.119 119.712C177.495 119.712 179.331 120.636 180.627 122.484C181.923 124.332 182.571 126.492 182.571 128.964C182.571 131.604 181.875 133.848 180.483 135.696C179.091 137.544 177.111 138.468 174.543 138.468C172.695 138.468 171.207 137.94 170.079 136.884V143.652L170.583 145.776ZM170.079 124.716V130.764C170.079 132.3 170.439 133.56 171.159 134.544C171.879 135.528 172.983 136.02 174.471 136.02C175.383 136.02 176.163 135.816 176.811 135.408C177.483 135 177.999 134.46 178.359 133.788C178.719 133.092 178.983 132.36 179.151 131.592C179.319 130.824 179.403 130.02 179.403 129.18C179.403 127.308 178.983 125.7 178.143 124.356C177.303 123.012 175.995 122.34 174.219 122.34C172.803 122.34 171.423 123.132 170.079 124.716ZM186.051 136.956L187.311 134.76C188.703 135.72 189.975 136.2 191.127 136.2C192.111 136.2 192.963 136.008 193.683 135.624C194.403 135.24 194.763 134.592 194.763 133.68C194.763 132.96 194.475 132.336 193.899 131.808C193.323 131.256 192.615 130.788 191.775 130.404C190.959 130.02 190.143 129.624 189.327 129.216C188.511 128.784 187.815 128.208 187.239 127.488C186.663 126.768 186.375 125.904 186.375 124.896C186.375 123.216 186.987 121.932 188.211 121.044C189.435 120.132 190.923 119.676 192.675 119.676C194.499 119.676 196.095 120.096 197.463 120.936L196.419 123.24C195.291 122.376 194.151 121.944 192.999 121.944C192.063 121.944 191.235 122.136 190.515 122.52C189.795 122.904 189.435 123.528 189.435 124.392C189.435 125.112 189.723 125.748 190.299 126.3C190.875 126.828 191.571 127.284 192.387 127.668C193.227 128.028 194.055 128.424 194.871 128.856C195.711 129.264 196.419 129.84 196.995 130.584C197.571 131.328 197.859 132.216 197.859 133.248C197.859 135.024 197.247 136.344 196.023 137.208C194.823 138.048 193.287 138.468 191.415 138.468C189.807 138.468 188.019 137.964 186.051 136.956Z" fill="white"/>
<path d="M84.125 61.1875H81.75V56.4375H86.5V58.8125H84.125V61.1875Z" fill="#A1CF66"/>
<path d="M120.938 31.5H118.562V26.75H123.312V29.125H120.938V31.5Z" fill="#A1CF66"/>
<path d="M88.036 47.2848L103.474 31.8473L105.153 33.5265L89.7158 48.964L88.036 47.2848Z" fill="#A1CF66"/>
<path d="M145.179 22H113.812V57.1333L108.367 51.6875H77V98H116.188V68.3125H126.875V65.9375H116.188V24.375H143.5V31.5H150.625V65.9375H148.25V68.3125H153V29.8208L145.179 22ZM109.062 55.7417L112.133 58.8125H109.062V55.7417ZM113.812 95.625H79.375V54.0625H106.688V61.1875H113.812V95.625ZM145.875 29.125V26.0542L148.946 29.125H145.875Z" fill="#A1CF66"/>
<path d="M96 62.375C90.756 62.3808 86.5058 66.631 86.5 71.875V86.125H93.625V81.375H98.375V86.125H105.5V71.875C105.494 66.631 101.244 62.3808 96 62.375ZM103.125 83.75H100.75V79H91.25V83.75H88.875V71.875C88.875 67.9402 92.0652 64.75 96 64.75C99.9348 64.75 103.125 67.9402 103.125 71.875V83.75Z" fill="#A1CF66"/>
<path d="M96 67.125C93.3768 67.125 91.25 69.2518 91.25 71.875V76.625H100.75V71.875C100.75 69.2518 98.6232 67.125 96 67.125ZM98.375 74.25H93.625V71.875C93.625 70.5634 94.6884 69.5 96 69.5C97.3116 69.5 98.375 70.5634 98.375 71.875V74.25Z" fill="#A1CF66"/>
<path d="M131.625 58.8125V55.25H135.188V58.8125H142.312V55.25H145.875V48.125H142.312V44.5625H145.875V37.4375H142.312V33.875H135.188V37.4375H131.625V33.875H124.5V37.4375H120.938V44.5625H124.5V48.125H120.938V55.25H124.5V58.8125H131.625ZM123.312 52.875V50.5H126.875V42.1875H123.312V39.8125H126.875V36.25H129.25V39.8125H137.562V36.25H139.938V39.8125H143.5V42.1875H139.938V50.5H143.5V52.875H139.938V56.4375H137.562V52.875H129.25V56.4375H126.875V52.875H123.312Z" fill="#A1CF66"/>
<path d="M137.562 42.1875H129.25V50.5H137.562V42.1875ZM135.188 48.125H131.625V44.5625H135.188V48.125Z" fill="#A1CF66"/>
<path d="M136.375 85.9064V88.5H138.75V85.9064C140.386 85.3283 141.367 83.6555 141.074 81.9456C140.781 80.235 139.297 78.9855 137.562 78.9855C135.828 78.9855 134.344 80.235 134.051 81.9456C133.758 83.6555 134.739 85.3283 136.375 85.9064ZM137.562 81.375C138.218 81.375 138.75 81.9067 138.75 82.5625C138.75 83.2183 138.218 83.75 137.562 83.75C136.907 83.75 136.375 83.2183 136.375 82.5625C136.375 81.9067 136.907 81.375 137.562 81.375Z" fill="#A1CF66"/>
<path d="M145.875 70.6875C145.875 66.0964 142.154 62.375 137.562 62.375C132.971 62.375 129.25 66.0964 129.25 70.6875V74.25H126.875V93.25H148.25V74.25H145.875V70.6875ZM131.625 70.6875C131.625 67.4085 134.284 64.75 137.562 64.75C140.841 64.75 143.5 67.4085 143.5 70.6875V74.25H131.625V70.6875ZM145.875 90.875H129.25V76.625H145.875V90.875Z" fill="#A1CF66"/>
<path d="M81.4021 48.9646L98.8667 31.5L96.4917 29.125H107.875V40.5083L105.5 38.1333L96.3479 47.2854L98.0271 48.9646L105.5 41.4917L110.25 46.2417V26.75H90.7583L95.5083 31.5L79.7229 47.2854L81.4021 48.9646Z" fill="#A1CF66"/>
<defs>
<filter id="filter0_d" x="0" y="0" width="229" height="170" filterUnits="userSpaceOnUse" color-interpolation-filters="sRGB">
<feFlood flood-opacity="0" result="BackgroundImageFix"/>
<feColorMatrix in="SourceAlpha" type="matrix" values="0 0 0 0 0 0 0 0 0 0 0 0 0 0 0 0 0 0 127 0"/>
<feOffset dy="4"/>
<feGaussianBlur stdDeviation="2"/>
<feColorMatrix type="matrix" values="0 0 0 0 0 0 0 0 0 0 0 0 0 0 0 0 0 0 0.25 0"/>
<feBlend mode="normal" in2="BackgroundImageFix" result="effect1_dropShadow"/>
<feBlend mode="normal" in="SourceGraphic" in2="effect1_dropShadow" result="shape"/>
</filter>
</defs>
</svg>
