<svg width="229" height="170" viewBox="0 0 229 170" fill="none" xmlns="http://www.w3.org/2000/svg">
<g filter="url(#filter0_d)">
<rect x="4" width="221" height="162" fill="black"/>
</g>
<path d="M96.3106 142.572L96.8866 144.3C95.7826 144.708 94.9426 144.996 94.3666 145.164C93.8146 145.356 93.0346 145.536 92.0266 145.704C91.0426 145.896 90.0226 145.992 88.9666 145.992C87.6946 145.992 86.1346 145.716 84.2866 145.164C82.4386 144.612 80.8546 144.048 79.5346 143.472C78.2386 142.896 76.5946 142.128 74.6026 141.168C72.6346 140.232 71.4586 139.68 71.0746 139.512C70.3066 139.152 68.7346 138.708 66.3586 138.18C63.1666 137.46 60.8026 135.924 59.2666 133.572C57.7306 131.196 56.9626 128.316 56.9626 124.932C56.9626 122.46 57.3706 120.228 58.1866 118.236C59.0026 116.244 60.2986 114.612 62.0746 113.34C63.8746 112.068 66.0466 111.432 68.5906 111.432C70.5106 111.432 72.2146 111.804 73.7026 112.548C75.2146 113.268 76.4266 114.264 77.3386 115.536C78.2746 116.784 78.9826 118.212 79.4626 119.82C79.9426 121.404 80.1826 123.108 80.1826 124.932C80.1826 127.74 79.5946 130.284 78.4186 132.564C77.2426 134.82 75.4546 136.464 73.0546 137.496C73.1026 137.52 73.1866 137.568 73.3066 137.64C73.4506 137.688 73.5466 137.724 73.5946 137.748C81.2986 141.708 86.8306 143.688 90.1906 143.688C91.8226 143.688 93.8626 143.316 96.3106 142.572ZM68.5906 113.952C67.4146 113.952 66.3586 114.168 65.4226 114.6C64.4866 115.032 63.7186 115.608 63.1186 116.328C62.5186 117.024 62.0146 117.864 61.6066 118.848C61.2226 119.808 60.9466 120.792 60.7786 121.8C60.6106 122.808 60.5266 123.864 60.5266 124.968C60.5266 126.36 60.6706 127.68 60.9586 128.928C61.2466 130.152 61.6906 131.316 62.2906 132.42C62.8906 133.5 63.7306 134.364 64.8106 135.012C65.8906 135.636 67.1506 135.948 68.5906 135.948C70.0306 135.948 71.2906 135.636 72.3706 135.012C73.4746 134.364 74.3266 133.5 74.9266 132.42C75.5266 131.316 75.9706 130.14 76.2586 128.892C76.5466 127.644 76.6906 126.324 76.6906 124.932C76.6906 123.54 76.5466 122.22 76.2586 120.972C75.9706 119.724 75.5266 118.56 74.9266 117.48C74.3266 116.4 73.4746 115.548 72.3706 114.924C71.2906 114.276 70.0306 113.952 68.5906 113.952ZM101.074 135.372L101.686 137.244C101.518 137.316 101.242 137.436 100.858 137.604C100.498 137.748 100.198 137.868 99.9576 137.964C99.7416 138.036 99.4656 138.108 99.1296 138.18C98.7936 138.276 98.4936 138.324 98.2296 138.324C97.5336 138.324 96.9696 138.096 96.5376 137.64C96.1056 137.184 95.8296 136.596 95.7096 135.876C94.0296 137.604 92.1936 138.468 90.2016 138.468C88.3056 138.468 86.9136 137.904 86.0256 136.776C85.1616 135.624 84.7296 134.064 84.7296 132.096V122.232C84.7296 122.208 84.6936 122.04 84.6216 121.728C84.5496 121.392 84.4656 121.056 84.3696 120.72C84.2976 120.36 84.2616 120.156 84.2616 120.108H87.7176V131.124C87.7176 131.772 87.7416 132.324 87.7896 132.78C87.8616 133.236 87.9816 133.716 88.1496 134.22C88.3416 134.724 88.6536 135.12 89.0856 135.408C89.5176 135.672 90.0576 135.804 90.7056 135.804C92.0496 135.804 93.2016 135.384 94.1616 134.544C95.1216 133.68 95.6016 132.576 95.6016 131.232V122.232C95.6016 122.208 95.5656 122.04 95.4936 121.728C95.4216 121.392 95.3376 121.056 95.2416 120.72C95.1696 120.36 95.1336 120.156 95.1336 120.108H98.5896V134.508C98.5896 134.988 98.6376 135.336 98.7336 135.552C98.8536 135.768 99.0696 135.876 99.3816 135.876C99.6696 135.876 100.234 135.708 101.074 135.372ZM116.364 134.292L117.696 136.452C116.04 137.796 114.024 138.468 111.648 138.468C109.056 138.468 107.016 137.604 105.528 135.876C104.064 134.124 103.332 131.916 103.332 129.252C103.332 127.62 103.596 126.096 104.124 124.68C104.676 123.264 105.552 122.076 106.752 121.116C107.976 120.156 109.428 119.676 111.108 119.676C113.196 119.676 114.876 120.3 116.148 121.548C117.42 122.772 118.056 124.416 118.056 126.48C118.056 128.016 117.444 128.784 116.22 128.784H106.5V129.144C106.5 130.872 106.956 132.444 107.868 133.86C108.804 135.252 110.088 135.948 111.72 135.948C112.512 135.948 113.34 135.804 114.204 135.516C115.068 135.204 115.788 134.796 116.364 134.292ZM106.716 126.552H114.24C114.504 126.552 114.672 126.504 114.744 126.408C114.816 126.288 114.852 126.084 114.852 125.796C114.852 124.716 114.54 123.804 113.916 123.06C113.292 122.316 112.452 121.944 111.396 121.944C110.244 121.944 109.224 122.412 108.336 123.348C107.472 124.284 106.932 125.352 106.716 126.552ZM138.761 135.372L139.373 137.244C139.205 137.316 138.929 137.436 138.545 137.604C138.185 137.748 137.885 137.868 137.645 137.964C137.429 138.036 137.153 138.108 136.817 138.18C136.481 138.276 136.181 138.324 135.917 138.324C135.221 138.324 134.657 138.096 134.225 137.64C133.793 137.184 133.517 136.596 133.397 135.876C131.717 137.604 129.881 138.468 127.889 138.468C125.993 138.468 124.601 137.904 123.713 136.776C122.849 135.624 122.417 134.064 122.417 132.096V122.232C122.417 122.208 122.381 122.04 122.309 121.728C122.237 121.392 122.153 121.056 122.057 120.72C121.985 120.36 121.949 120.156 121.949 120.108H125.405V131.124C125.405 131.772 125.429 132.324 125.477 132.78C125.549 133.236 125.669 133.716 125.837 134.22C126.029 134.724 126.341 135.12 126.773 135.408C127.205 135.672 127.745 135.804 128.393 135.804C129.737 135.804 130.889 135.384 131.849 134.544C132.809 133.68 133.289 132.576 133.289 131.232V122.232C133.289 122.208 133.253 122.04 133.181 121.728C133.109 121.392 133.025 121.056 132.929 120.72C132.857 120.36 132.821 120.156 132.821 120.108H136.277V134.508C136.277 134.988 136.325 135.336 136.421 135.552C136.541 135.768 136.757 135.876 137.069 135.876C137.357 135.876 137.921 135.708 138.761 135.372ZM154.052 134.292L155.384 136.452C153.728 137.796 151.712 138.468 149.336 138.468C146.744 138.468 144.704 137.604 143.216 135.876C141.752 134.124 141.02 131.916 141.02 129.252C141.02 127.62 141.284 126.096 141.812 124.68C142.364 123.264 143.24 122.076 144.44 121.116C145.664 120.156 147.116 119.676 148.796 119.676C150.884 119.676 152.564 120.3 153.836 121.548C155.108 122.772 155.744 124.416 155.744 126.48C155.744 128.016 155.132 128.784 153.908 128.784H144.188V129.144C144.188 130.872 144.644 132.444 145.556 133.86C146.492 135.252 147.776 135.948 149.408 135.948C150.2 135.948 151.028 135.804 151.892 135.516C152.756 135.204 153.476 134.796 154.052 134.292ZM144.404 126.552H151.928C152.192 126.552 152.36 126.504 152.432 126.408C152.504 126.288 152.54 126.084 152.54 125.796C152.54 124.716 152.228 123.804 151.604 123.06C150.98 122.316 150.14 121.944 149.084 121.944C147.932 121.944 146.912 122.412 146.024 123.348C145.16 124.284 144.62 125.352 144.404 126.552ZM159.061 136.956L160.321 134.76C161.713 135.72 162.985 136.2 164.137 136.2C165.121 136.2 165.973 136.008 166.693 135.624C167.413 135.24 167.773 134.592 167.773 133.68C167.773 132.96 167.485 132.336 166.909 131.808C166.333 131.256 165.625 130.788 164.785 130.404C163.969 130.02 163.153 129.624 162.337 129.216C161.521 128.784 160.825 128.208 160.249 127.488C159.673 126.768 159.385 125.904 159.385 124.896C159.385 123.216 159.997 121.932 161.221 121.044C162.445 120.132 163.933 119.676 165.685 119.676C167.509 119.676 169.105 120.096 170.473 120.936L169.429 123.24C168.301 122.376 167.161 121.944 166.009 121.944C165.073 121.944 164.245 122.136 163.525 122.52C162.805 122.904 162.445 123.528 162.445 124.392C162.445 125.112 162.733 125.748 163.309 126.3C163.885 126.828 164.581 127.284 165.397 127.668C166.237 128.028 167.065 128.424 167.881 128.856C168.721 129.264 169.429 129.84 170.005 130.584C170.581 131.328 170.869 132.216 170.869 133.248C170.869 135.024 170.257 136.344 169.033 137.208C167.833 138.048 166.297 138.468 164.425 138.468C162.817 138.468 161.029 137.964 159.061 136.956Z" fill="white"/>
<path d="M124.78 39.1476V33.2782C124.78 30.4396 122.478 28.1383 119.64 28.1383H81.1399C78.3013 28.1383 76 30.4396 76 33.2782V53.0055C76 55.8443 78.3013 58.1453 81.1399 58.1453H84.9227V48.1363C84.9227 43.1801 88.9552 39.1476 93.9114 39.1476H124.78Z" fill="#A1CF66"/>
<path d="M137.551 54.0059V48.1365C137.551 45.2977 135.25 42.9966 132.411 42.9966H93.9116C91.073 42.9966 88.7717 45.2979 88.7717 48.1365V67.8635C88.7717 70.7021 91.073 73.0034 93.9116 73.0034H99.3715V62.9945C99.3715 58.0381 103.404 54.0059 108.36 54.0059H137.551Z" fill="#A1CF66"/>
<path d="M146.86 57.8546H108.36C105.522 57.8546 103.22 60.1559 103.22 62.9945V82.7218C103.22 85.5604 105.522 87.8617 108.36 87.8617H146.86C149.699 87.8617 152 85.5604 152 82.7218V62.9945C152 60.1557 149.699 57.8546 146.86 57.8546Z" fill="#A1CF66"/>
<defs>
<filter id="filter0_d" x="0" y="0" width="229" height="170" filterUnits="userSpaceOnUse" color-interpolation-filters="sRGB">
<feFlood flood-opacity="0" result="BackgroundImageFix"/>
<feColorMatrix in="SourceAlpha" type="matrix" values="0 0 0 0 0 0 0 0 0 0 0 0 0 0 0 0 0 0 127 0"/>
<feOffset dy="4"/>
<feGaussianBlur stdDeviation="2"/>
<feColorMatrix type="matrix" values="0 0 0 0 0 0 0 0 0 0 0 0 0 0 0 0 0 0 0.25 0"/>
<feBlend mode="normal" in2="BackgroundImageFix" result="effect1_dropShadow"/>
<feBlend mode="normal" in="SourceGraphic" in2="effect1_dropShadow" result="shape"/>
</filter>
</defs>
</svg>
