<svg width="229" height="170" viewBox="0 0 229 170" fill="none" xmlns="http://www.w3.org/2000/svg">
<g filter="url(#filter0_d)">
<rect x="4" width="221" height="162" fill="black"/>
</g>
<path d="M67.3825 136.488L68.6785 133.536C69.4705 134.232 70.4305 134.796 71.5585 135.228C72.6865 135.636 73.7665 135.84 74.7985 135.84C76.1665 135.84 77.3905 135.456 78.4705 134.688C79.5505 133.92 80.0905 132.804 80.0905 131.34C80.0905 130.092 79.6705 129.036 78.8305 128.172C78.0145 127.308 77.0185 126.624 75.8425 126.12C74.6665 125.592 73.4905 125.052 72.3145 124.5C71.1625 123.924 70.1665 123.12 69.3265 122.088C68.5105 121.056 68.1025 119.784 68.1025 118.272C68.1025 116.136 68.9185 114.468 70.5505 113.268C72.1825 112.044 74.1025 111.432 76.3105 111.432C78.6385 111.432 80.8945 112.08 83.0785 113.376L81.4225 115.788C79.7425 114.588 78.0265 113.988 76.2745 113.988C74.9065 113.988 73.8025 114.324 72.9625 114.996C72.1225 115.668 71.7025 116.664 71.7025 117.984C71.7025 118.728 71.9185 119.4 72.3505 120C72.8065 120.576 73.3825 121.068 74.0785 121.476C74.7745 121.884 75.5425 122.28 76.3825 122.664C77.2465 123.048 78.1105 123.48 78.9745 123.96C79.8385 124.416 80.6185 124.932 81.3145 125.508C82.0105 126.084 82.5745 126.828 83.0065 127.74C83.4625 128.652 83.6905 129.696 83.6905 130.872C83.6905 133.32 82.8265 135.192 81.0985 136.488C79.3705 137.784 77.2345 138.432 74.6905 138.432C72.3385 138.432 69.9025 137.784 67.3825 136.488ZM95.341 135.732L95.845 137.748C94.429 138.18 93.241 138.396 92.281 138.396C90.817 138.396 89.761 138.012 89.113 137.244C88.489 136.452 88.177 135.288 88.177 133.752V122.376H85.513V120.576C87.601 120.528 88.993 118.668 89.689 114.996H91.957C91.429 117.156 91.165 118.86 91.165 120.108H95.845L95.197 122.376H91.165V133.824C91.165 134.592 91.297 135.168 91.561 135.552C91.849 135.912 92.353 136.092 93.073 136.092C93.625 136.092 94.381 135.972 95.341 135.732ZM113.886 135.372L114.498 137.244C114.33 137.316 114.054 137.436 113.67 137.604C113.31 137.748 113.01 137.868 112.77 137.964C112.554 138.036 112.278 138.108 111.942 138.18C111.606 138.276 111.306 138.324 111.042 138.324C110.346 138.324 109.77 138.096 109.314 137.64C108.882 137.184 108.606 136.596 108.486 135.876C106.878 137.556 105.078 138.396 103.086 138.396C101.646 138.396 100.458 137.976 99.5223 137.136C98.6103 136.272 98.1543 135.12 98.1543 133.68C98.1543 129.624 101.574 127.572 108.414 127.524V125.616C108.414 123.216 107.418 122.016 105.426 122.016C104.49 122.016 103.542 122.208 102.582 122.592C101.622 122.976 100.854 123.492 100.278 124.14L98.8023 122.016C100.746 120.456 103.038 119.676 105.678 119.676C107.55 119.676 108.966 120.192 109.926 121.224C110.91 122.232 111.402 123.684 111.402 125.58V134.508C111.402 134.988 111.45 135.336 111.546 135.552C111.666 135.768 111.882 135.876 112.194 135.876C112.482 135.876 113.046 135.708 113.886 135.372ZM108.414 131.016V129.864C107.526 129.864 106.758 129.9 106.11 129.972C105.486 130.02 104.742 130.152 103.878 130.368C103.038 130.584 102.378 130.968 101.898 131.52C101.442 132.048 101.214 132.732 101.214 133.572C101.214 134.34 101.466 134.916 101.97 135.3C102.498 135.684 103.194 135.876 104.058 135.876C105.282 135.876 106.314 135.384 107.154 134.4C107.994 133.392 108.414 132.264 108.414 131.016ZM128.579 134.4L129.947 136.668C128.819 137.34 127.847 137.808 127.031 138.072C126.239 138.336 125.243 138.468 124.043 138.468C121.643 138.468 119.687 137.52 118.175 135.624C116.687 133.704 115.943 131.52 115.943 129.072C115.943 126.36 116.699 124.116 118.211 122.34C119.747 120.564 121.847 119.676 124.511 119.676C126.359 119.676 128.087 120.288 129.695 121.512L128.075 123.6C127.379 123 126.743 122.592 126.167 122.376C125.615 122.136 124.907 122.016 124.043 122.016C122.483 122.016 121.271 122.724 120.407 124.14C119.567 125.556 119.147 127.092 119.147 128.748C119.147 129.852 119.303 130.932 119.615 131.988C119.951 133.02 120.515 133.944 121.307 134.76C122.123 135.576 123.095 135.984 124.223 135.984C125.087 135.984 125.819 135.864 126.419 135.624C127.019 135.384 127.739 134.976 128.579 134.4ZM147.342 138H143.778L136.47 128.28V138H133.482V112.692C133.482 112.668 133.446 112.5 133.374 112.188C133.302 111.852 133.218 111.516 133.122 111.18C133.05 110.82 133.014 110.616 133.014 110.568H136.47V127.488L143.166 120.108H146.37L139.494 127.632L147.342 138ZM149.137 136.956L150.397 134.76C151.789 135.72 153.061 136.2 154.213 136.2C155.197 136.2 156.049 136.008 156.769 135.624C157.489 135.24 157.849 134.592 157.849 133.68C157.849 132.96 157.561 132.336 156.985 131.808C156.409 131.256 155.701 130.788 154.861 130.404C154.045 130.02 153.229 129.624 152.413 129.216C151.597 128.784 150.901 128.208 150.325 127.488C149.749 126.768 149.461 125.904 149.461 124.896C149.461 123.216 150.073 121.932 151.297 121.044C152.521 120.132 154.009 119.676 155.761 119.676C157.585 119.676 159.181 120.096 160.549 120.936L159.505 123.24C158.377 122.376 157.237 121.944 156.085 121.944C155.149 121.944 154.321 122.136 153.601 122.52C152.881 122.904 152.521 123.528 152.521 124.392C152.521 125.112 152.809 125.748 153.385 126.3C153.961 126.828 154.657 127.284 155.473 127.668C156.313 128.028 157.141 128.424 157.957 128.856C158.797 129.264 159.505 129.84 160.081 130.584C160.657 131.328 160.945 132.216 160.945 133.248C160.945 135.024 160.333 136.344 159.109 137.208C157.909 138.048 156.373 138.468 154.501 138.468C152.893 138.468 151.105 137.964 149.137 136.956Z" fill="white"/>
<g clip-path="url(#clip0)">
<path d="M114 49.9332C134.987 49.9332 152 44.2622 152 37.2666C152 30.271 134.987 24.6 114 24.6C93.0132 24.6 76 30.271 76 37.2666C76 44.2622 93.0132 49.9332 114 49.9332Z" fill="#A1CF66"/>
<path d="M114 49.9332C134.987 49.9332 152 44.2622 152 37.2666C152 30.271 134.987 24.6 114 24.6C93.0132 24.6 76 30.271 76 37.2666C76 44.2622 93.0132 49.9332 114 49.9332Z" fill="#A1CF66"/>
<path d="M143.273 53.4334C135.341 56.0772 124.945 57.5334 114 57.5334C103.055 57.5334 92.6584 56.0772 84.7266 53.4334C81.0968 52.2235 78.2395 50.8484 76 49.3897V54.7466C76 58.13 79.9524 61.311 87.13 63.7032C94.3071 66.0957 103.85 67.4134 114 67.4134C124.15 67.4134 133.693 66.0958 140.87 63.7033C148.047 61.311 152 58.13 152 54.7466V49.3897C149.761 50.8484 146.903 52.2232 143.273 53.4334Z" fill="#A1CF66"/>
<path d="M143.273 70.9134C135.342 73.5572 124.945 75.0134 114 75.0134C103.055 75.0134 92.6582 73.5572 84.7266 70.9132C81.0966 69.7033 78.2393 68.3285 76 66.8698V72.7335C76 79.729 93.0132 85.4 114 85.4C134.987 85.4 152 79.729 152 72.7334V66.87C149.761 68.3284 146.903 69.7035 143.273 70.9134Z" fill="#A1CF66"/>
</g>
<defs>
<filter id="filter0_d" x="0" y="0" width="229" height="170" filterUnits="userSpaceOnUse" color-interpolation-filters="sRGB">
<feFlood flood-opacity="0" result="BackgroundImageFix"/>
<feColorMatrix in="SourceAlpha" type="matrix" values="0 0 0 0 0 0 0 0 0 0 0 0 0 0 0 0 0 0 127 0"/>
<feOffset dy="4"/>
<feGaussianBlur stdDeviation="2"/>
<feColorMatrix type="matrix" values="0 0 0 0 0 0 0 0 0 0 0 0 0 0 0 0 0 0 0.25 0"/>
<feBlend mode="normal" in2="BackgroundImageFix" result="effect1_dropShadow"/>
<feBlend mode="normal" in="SourceGraphic" in2="effect1_dropShadow" result="shape"/>
</filter>
<clipPath id="clip0">
<rect x="76" y="17" width="76" height="76" fill="white"/>
</clipPath>
</defs>
</svg>
