<svg width="229" height="170" viewBox="0 0 229 170" fill="none" xmlns="http://www.w3.org/2000/svg">
<g filter="url(#filter0_d)">
<rect x="4" width="221" height="162" fill="black"/>
</g>
<path d="M154.2 78H149.6L135.1 66H136.7C139.4 66 141.5 64.24 141.5 62.16V53.84C141.5 51.68 139.3 50 136.7 50H132.1L117.6 38H119.2C121.9 38 124 36.24 124 34.16V25.84C124 23.76 121.8 22 119.2 22H108.8C106.2 22 104 23.76 104 25.84V34.16C104 36.32 106.2 38 108.8 38H110.4L95.9 50H91.3C88.6 50 86.5 51.76 86.5 53.84V62.16C86.5 64.32 88.7 66 91.3 66H92.9L78.4 78H73.8C71.2 78 69 79.76 69 81.84V90.16C69 92.24 71.2 94 73.8 94H84.2C86.9 94 89 92.24 89 90.16V81.84C89 79.68 86.8 78 84.2 78H82.6L96.5 66.56L110.4 78H108.8C106.1 78 104 79.76 104 81.84V90.16C104 92.32 106.2 94 108.8 94H119.2C121.9 94 124 92.24 124 90.16V81.84C124 79.68 121.8 78 119.2 78H114.6L100.1 66H101.7C104.4 66 106.5 64.24 106.5 62.16V53.84C106.5 51.68 104.3 50 101.7 50H100.1L114 38.48L127.9 50H126.3C123.6 50 121.5 51.76 121.5 53.84V62.16C121.5 64.32 123.7 66 126.3 66H130.9L145.5 78H143.9C141.2 78 139.1 79.76 139.1 81.84V90.16C139.1 92.32 141.3 94 143.9 94H154.3C157 94 159.1 92.24 159.1 90.16V81.84C159 79.76 156.8 78 154.2 78ZM86 81.84V90.16C86 90.96 85.2 91.6 84.2 91.6H73.8C72.8 91.6 72 90.96 72 90.16V81.84C72 81.04 72.8 80.4 73.8 80.4H84.2C85.2 80.4 86 81.04 86 81.84ZM121 81.84V90.16C121 90.96 120.2 91.6 119.2 91.6H108.8C107.8 91.6 107 90.96 107 90.16V81.84C107 81.04 107.8 80.4 108.8 80.4H119.2C120.2 80.4 121 81.04 121 81.84ZM103.5 53.84V62.16C103.5 62.96 102.7 63.6 101.7 63.6H91.3C90.3 63.6 89.5 62.96 89.5 62.16V53.84C89.5 53.04 90.3 52.4 91.3 52.4H101.7C102.7 52.4 103.5 53.04 103.5 53.84ZM107 34.16V25.84C107 25.04 107.8 24.4 108.8 24.4H119.2C120.2 24.4 121 25.04 121 25.84V34.16C121 34.96 120.2 35.6 119.2 35.6H108.8C107.8 35.6 107 34.96 107 34.16ZM124.5 62.16V53.84C124.5 53.04 125.3 52.4 126.3 52.4H136.7C137.7 52.4 138.5 53.04 138.5 53.84V62.16C138.5 62.96 137.7 63.6 136.7 63.6H126.3C125.3 63.6 124.5 62.96 124.5 62.16ZM156 90.16C156 90.96 155.2 91.6 154.2 91.6H143.8C142.8 91.6 142 90.96 142 90.16V81.84C142 81.04 142.8 80.4 143.8 80.4H154.2C155.2 80.4 156 81.04 156 81.84V90.16Z" fill="#A1CF66"/>
<path d="M31.3755 138H24.2475V114.168C24.2475 114.144 24.1995 113.952 24.1035 113.592C24.0315 113.232 23.9475 112.86 23.8515 112.476C23.7795 112.068 23.7435 111.84 23.7435 111.792H32.4915C37.7955 111.792 40.4475 113.82 40.4475 117.876C40.4475 119.292 40.0395 120.564 39.2235 121.692C38.4315 122.796 37.3635 123.468 36.0195 123.708C37.7715 123.972 39.1395 124.752 40.1235 126.048C41.1315 127.32 41.6355 128.856 41.6355 130.656C41.6355 132.144 41.3475 133.404 40.7715 134.436C40.2195 135.444 39.4155 136.2 38.3595 136.704C37.3275 137.184 36.2595 137.52 35.1555 137.712C34.0755 137.904 32.8155 138 31.3755 138ZM27.5955 122.628H31.4475C33.2235 122.628 34.5795 122.268 35.5155 121.548C36.4755 120.828 36.9555 119.628 36.9555 117.948C36.9555 115.5 35.4315 114.276 32.3835 114.276H27.5955V122.628ZM27.5955 135.516H31.5915C33.6795 135.516 35.2755 135.12 36.3795 134.328C37.5075 133.536 38.0715 132.132 38.0715 130.116C38.0715 128.412 37.4355 127.152 36.1635 126.336C34.9155 125.52 33.3915 125.112 31.5915 125.112H27.5955V135.516ZM49.9608 114.096C49.9608 114.72 49.7448 115.248 49.3128 115.68C48.9048 116.088 48.3888 116.292 47.7648 116.292C47.1648 116.292 46.6488 116.076 46.2168 115.644C45.8088 115.212 45.6048 114.696 45.6048 114.096C45.6048 113.496 45.8088 112.98 46.2168 112.548C46.6488 112.116 47.1648 111.9 47.7648 111.9C48.3648 111.9 48.8808 112.116 49.3128 112.548C49.7448 112.98 49.9608 113.496 49.9608 114.096ZM49.3128 138H46.3248V122.232C46.3248 122.208 46.2888 122.04 46.2168 121.728C46.1448 121.392 46.0728 121.056 46.0008 120.72C45.9288 120.36 45.8928 120.156 45.8928 120.108H49.3128V138ZM69.0399 138H66.0879V127.02C66.0879 126.468 66.0759 126.012 66.0519 125.652C66.0279 125.292 65.9559 124.884 65.8359 124.428C65.7399 123.972 65.5839 123.612 65.3679 123.348C65.1759 123.06 64.8759 122.82 64.4679 122.628C64.0839 122.436 63.6159 122.34 63.0639 122.34C61.4799 122.34 59.8479 123.132 58.1679 124.716V138H55.2159V125.328C55.2159 123.024 54.8199 121.332 54.0279 120.252L57.3039 119.82C57.6639 120.732 57.8919 121.584 57.9879 122.376C59.7879 120.576 61.6479 119.676 63.5679 119.676C65.4639 119.676 66.8439 120.252 67.7079 121.404C68.5959 122.532 69.0399 124.08 69.0399 126.048V138ZM89.3394 135.372L89.9514 137.244C89.7834 137.316 89.5074 137.436 89.1234 137.604C88.7634 137.748 88.4634 137.868 88.2234 137.964C88.0074 138.036 87.7314 138.108 87.3954 138.18C87.0594 138.276 86.7594 138.324 86.4954 138.324C85.7994 138.324 85.2234 138.096 84.7674 137.64C84.3354 137.184 84.0594 136.596 83.9394 135.876C82.3314 137.556 80.5314 138.396 78.5394 138.396C77.0994 138.396 75.9114 137.976 74.9754 137.136C74.0634 136.272 73.6074 135.12 73.6074 133.68C73.6074 129.624 77.0274 127.572 83.8674 127.524V125.616C83.8674 123.216 82.8714 122.016 80.8794 122.016C79.9434 122.016 78.9954 122.208 78.0354 122.592C77.0754 122.976 76.3074 123.492 75.7314 124.14L74.2554 122.016C76.1994 120.456 78.4914 119.676 81.1314 119.676C83.0034 119.676 84.4194 120.192 85.3794 121.224C86.3634 122.232 86.8554 123.684 86.8554 125.58V134.508C86.8554 134.988 86.9034 135.336 86.9994 135.552C87.1194 135.768 87.3354 135.876 87.6474 135.876C87.9354 135.876 88.4994 135.708 89.3394 135.372ZM83.8674 131.016V129.864C82.9794 129.864 82.2114 129.9 81.5634 129.972C80.9394 130.02 80.1954 130.152 79.3314 130.368C78.4914 130.584 77.8314 130.968 77.3514 131.52C76.8954 132.048 76.6674 132.732 76.6674 133.572C76.6674 134.34 76.9194 134.916 77.4234 135.3C77.9514 135.684 78.6474 135.876 79.5114 135.876C80.7354 135.876 81.7674 135.384 82.6074 134.4C83.4474 133.392 83.8674 132.264 83.8674 131.016ZM95.7165 138H92.7285V125.04C92.7285 122.928 92.3445 121.308 91.5765 120.18L94.8165 119.784C95.2485 120.84 95.5245 121.956 95.6445 123.132C96.2925 122.124 97.1445 121.32 98.2005 120.72C99.2565 120.096 100.361 119.784 101.513 119.784L100.793 122.952C98.8485 122.952 97.1565 124.008 95.7165 126.12V138ZM106.013 145.812H104.645V143.4H105.041C105.761 143.4 106.409 143.232 106.985 142.896C107.561 142.584 108.053 142.116 108.461 141.492C108.893 140.868 109.229 140.292 109.469 139.764C109.733 139.236 109.997 138.6 110.261 137.856L103.709 120.108H106.949L111.701 133.716L116.453 120.108H119.261L112.925 138.072C111.077 143.232 108.773 145.812 106.013 145.812ZM138.611 138H135.191V114.276H127.415V111.792H146.495V114.276H138.611V138ZM149.119 138H146.131V125.04C146.131 122.928 145.747 121.308 144.979 120.18L148.219 119.784C148.651 120.84 148.927 121.956 149.047 123.132C149.695 122.124 150.547 121.32 151.603 120.72C152.659 120.096 153.763 119.784 154.915 119.784L154.195 122.952C152.251 122.952 150.559 124.008 149.119 126.12V138ZM170.382 134.292L171.714 136.452C170.058 137.796 168.042 138.468 165.666 138.468C163.074 138.468 161.034 137.604 159.546 135.876C158.082 134.124 157.35 131.916 157.35 129.252C157.35 127.62 157.614 126.096 158.142 124.68C158.694 123.264 159.57 122.076 160.77 121.116C161.994 120.156 163.446 119.676 165.126 119.676C167.214 119.676 168.894 120.3 170.166 121.548C171.438 122.772 172.074 124.416 172.074 126.48C172.074 128.016 171.462 128.784 170.238 128.784H160.518V129.144C160.518 130.872 160.974 132.444 161.886 133.86C162.822 135.252 164.106 135.948 165.738 135.948C166.53 135.948 167.358 135.804 168.222 135.516C169.086 135.204 169.806 134.796 170.382 134.292ZM160.734 126.552H168.258C168.522 126.552 168.69 126.504 168.762 126.408C168.834 126.288 168.87 126.084 168.87 125.796C168.87 124.716 168.558 123.804 167.934 123.06C167.31 122.316 166.47 121.944 165.414 121.944C164.262 121.944 163.242 122.412 162.354 123.348C161.49 124.284 160.95 125.352 160.734 126.552ZM188.171 134.292L189.503 136.452C187.847 137.796 185.831 138.468 183.455 138.468C180.863 138.468 178.823 137.604 177.335 135.876C175.871 134.124 175.139 131.916 175.139 129.252C175.139 127.62 175.403 126.096 175.931 124.68C176.483 123.264 177.359 122.076 178.559 121.116C179.783 120.156 181.235 119.676 182.915 119.676C185.003 119.676 186.683 120.3 187.955 121.548C189.227 122.772 189.863 124.416 189.863 126.48C189.863 128.016 189.251 128.784 188.027 128.784H178.307V129.144C178.307 130.872 178.763 132.444 179.675 133.86C180.611 135.252 181.895 135.948 183.527 135.948C184.319 135.948 185.147 135.804 186.011 135.516C186.875 135.204 187.595 134.796 188.171 134.292ZM178.523 126.552H186.047C186.311 126.552 186.479 126.504 186.551 126.408C186.623 126.288 186.659 126.084 186.659 125.796C186.659 124.716 186.347 123.804 185.723 123.06C185.099 122.316 184.259 121.944 183.203 121.944C182.051 121.944 181.031 122.412 180.143 123.348C179.279 124.284 178.739 125.352 178.523 126.552ZM193.18 136.956L194.44 134.76C195.832 135.72 197.104 136.2 198.256 136.2C199.24 136.2 200.092 136.008 200.812 135.624C201.532 135.24 201.892 134.592 201.892 133.68C201.892 132.96 201.604 132.336 201.028 131.808C200.452 131.256 199.744 130.788 198.904 130.404C198.088 130.02 197.272 129.624 196.456 129.216C195.64 128.784 194.944 128.208 194.368 127.488C193.792 126.768 193.504 125.904 193.504 124.896C193.504 123.216 194.116 121.932 195.34 121.044C196.564 120.132 198.052 119.676 199.804 119.676C201.628 119.676 203.224 120.096 204.592 120.936L203.548 123.24C202.42 122.376 201.28 121.944 200.128 121.944C199.192 121.944 198.364 122.136 197.644 122.52C196.924 122.904 196.564 123.528 196.564 124.392C196.564 125.112 196.852 125.748 197.428 126.3C198.004 126.828 198.7 127.284 199.516 127.668C200.356 128.028 201.184 128.424 202 128.856C202.84 129.264 203.548 129.84 204.124 130.584C204.7 131.328 204.988 132.216 204.988 133.248C204.988 135.024 204.376 136.344 203.152 137.208C201.952 138.048 200.416 138.468 198.544 138.468C196.936 138.468 195.148 137.964 193.18 136.956Z" fill="white"/>
<defs>
<filter id="filter0_d" x="0" y="0" width="229" height="170" filterUnits="userSpaceOnUse" color-interpolation-filters="sRGB">
<feFlood flood-opacity="0" result="BackgroundImageFix"/>
<feColorMatrix in="SourceAlpha" type="matrix" values="0 0 0 0 0 0 0 0 0 0 0 0 0 0 0 0 0 0 127 0"/>
<feOffset dy="4"/>
<feGaussianBlur stdDeviation="2"/>
<feColorMatrix type="matrix" values="0 0 0 0 0 0 0 0 0 0 0 0 0 0 0 0 0 0 0.25 0"/>
<feBlend mode="normal" in2="BackgroundImageFix" result="effect1_dropShadow"/>
<feBlend mode="normal" in="SourceGraphic" in2="effect1_dropShadow" result="shape"/>
</filter>
</defs>
</svg>
